<?xml version="1.0" encoding="utf-8"?>
<!-- Generator: Adobe Illustrator 17.1.0, SVG Export Plug-In . SVG Version: 6.00 Build 0)  -->
<!DOCTYPE svg PUBLIC "-//W3C//DTD SVG 1.1//EN" "http://www.w3.org/Graphics/SVG/1.1/DTD/svg11.dtd">
<svg version="1.1" id="圖層_1" xmlns="http://www.w3.org/2000/svg" xmlns:xlink="http://www.w3.org/1999/xlink" x="0px" y="0px"
	 viewBox="0 0 980 150" enable-background="new 0 0 980 150" xml:space="preserve">
<g>
	<g>
		<path fill="#FF7422" d="M161.1,33.1h33.5c4.4,0,8.5,0.4,12.3,1.3c3.8,0.9,7.1,2.3,9.8,4.3c2.7,2,4.7,4.7,6,8.1
			c1.3,3.4,1.6,7.6,0.9,12.6c-0.9,6.1-3.2,11.3-7,15.6c-3.7,4.3-8.8,7-15,8.1l16.9,36.5h-22.8L182.3,85h-9.4l-4.8,34.6h-19
			L161.1,33.1z M175.2,68.8h11.2c1.7,0,3.5-0.1,5.4-0.2c1.9-0.1,3.7-0.5,5.3-1.1c1.6-0.6,3.1-1.6,4.3-2.9c1.2-1.3,2-3.1,2.3-5.5
			c0.3-2.2,0.1-3.9-0.6-5.3c-0.7-1.3-1.8-2.3-3.1-3c-1.3-0.7-2.8-1.2-4.6-1.4c-1.8-0.2-3.5-0.4-5.2-0.4h-12.5L175.2,68.8z"/>
		<path fill="#FF7422" d="M283.4,109.3c-3.4,3.7-7.5,6.6-12.3,8.7c-4.8,2-9.5,3.1-14.3,3.1c-4.6,0-8.8-0.7-12.6-2.2
			c-3.8-1.5-7-3.6-9.6-6.3c-2.6-2.7-4.4-6-5.6-9.8c-1.2-3.8-1.4-8.1-0.8-12.8c0.7-4.7,2.1-9,4.3-12.8c2.2-3.8,5-7.1,8.4-9.8
			c3.3-2.7,7.1-4.8,11.4-6.3c4.2-1.5,8.6-2.2,13.2-2.2c4.2,0,8,0.7,11.2,2.2c3.3,1.5,5.9,3.6,7.9,6.3c2,2.7,3.4,6,4.2,9.8
			c0.8,3.8,0.8,8.1,0.2,12.8l-0.9,5.7h-42.5c0.2,3.5,1.4,6.3,3.6,8.4c2.2,2.1,5,3.1,8.6,3.1c3,0,5.6-0.7,7.9-2
			c2.2-1.3,4.3-3.1,6.2-5.2L283.4,109.3z M271.5,83.1c0.5-3.1-0.2-5.7-2-7.9c-1.8-2.2-4.4-3.3-7.7-3.3c-2,0-3.9,0.3-5.5,1
			c-1.6,0.7-3.1,1.5-4.3,2.5c-1.2,1-2.2,2.2-3.1,3.5c-0.8,1.3-1.4,2.7-1.7,4.2H271.5z"/>
		<path fill="#FF7422" d="M304.2,60.2h17.6l-1.1,8.1h0.2c0.7-1.1,1.7-2.3,2.9-3.4c1.2-1.1,2.6-2.2,4.2-3.1c1.5-0.9,3.3-1.6,5.2-2.2
			c2-0.6,4-0.9,6.2-0.9c4.6,0,8.3,0.7,11,2.1c2.7,1.4,4.6,3.4,5.9,5.9c1.2,2.5,1.9,5.5,2,8.9c0.1,3.4-0.2,7.1-0.7,11.1l-4.5,32.7
			h-18.3l4-29.1c0.2-1.7,0.4-3.5,0.6-5.3c0.2-1.8,0-3.5-0.4-5.1c-0.4-1.5-1.2-2.8-2.3-3.8c-1.1-1-2.9-1.5-5.2-1.5
			c-2.4,0-4.3,0.4-5.9,1.3c-1.6,0.9-2.9,2-3.8,3.4c-1,1.4-1.7,3-2.2,4.8c-0.5,1.8-0.9,3.7-1.1,5.6l-4.2,29.5h-18.3L304.2,60.2z"/>
		<path fill="#FF7422" d="M412.7,74.8h-16.1l-2.8,19.8c-0.2,1.6-0.4,3.1-0.4,4.5c0,1.3,0.2,2.5,0.7,3.5c0.4,1,1.2,1.7,2.3,2.3
			c1.1,0.5,2.6,0.8,4.6,0.8c1,0,2.3-0.1,3.8-0.3c1.6-0.2,2.8-0.7,3.7-1.4l-2.1,15.3c-2.1,0.7-4.3,1.2-6.5,1.5
			c-2.2,0.2-4.4,0.4-6.5,0.4c-3.1,0-5.9-0.3-8.4-1c-2.5-0.7-4.7-1.7-6.4-3.1c-1.8-1.4-3-3.3-3.8-5.6c-0.8-2.3-1-5-0.5-8.3l4-28.2
			h-11.7l2.1-14.7h11.7l2.4-17.6h18.3l-2.4,17.6h16.1L412.7,74.8z"/>
		<path fill="#FF7422" d="M430.1,33.1h32.2c3.7,0,7.5,0.3,11.2,0.8c3.7,0.5,7,1.6,9.8,3.2c2.8,1.6,4.9,3.8,6.4,6.7
			c1.5,2.9,1.9,6.6,1.2,11.4c-0.7,4.9-2.6,8.9-5.8,12.1c-3.2,3.2-7.1,5.5-11.8,6.9v0.2c2.8,0.4,5.2,1.2,7.4,2.4
			c2.2,1.2,3.9,2.7,5.3,4.5c1.4,1.8,2.4,4,2.9,6.4c0.6,2.4,0.7,5,0.2,7.8c-0.7,4.6-2.2,8.4-4.5,11.4c-2.4,3.1-5.2,5.5-8.5,7.4
			c-3.3,1.9-7,3.2-11,4c-4,0.8-7.9,1.2-11.7,1.2H418L430.1,33.1z M439.3,103.4h17.1c1.5,0,3-0.2,4.6-0.5c1.6-0.3,3-0.9,4.3-1.7
			c1.3-0.8,2.4-1.9,3.4-3.2c1-1.3,1.6-2.9,1.8-4.8c0.2-2,0-3.7-0.9-4.9c-0.8-1.3-2-2.2-3.4-2.9c-1.5-0.7-3.1-1.1-4.8-1.3
			c-1.8-0.2-3.4-0.4-4.9-0.4h-14.4L439.3,103.4z M444.3,67.6h13.8c1.5,0,2.9-0.2,4.4-0.5c1.5-0.3,2.8-0.9,4.1-1.6
			c1.3-0.7,2.3-1.7,3.2-2.9c0.9-1.2,1.4-2.7,1.6-4.4c0.2-1.8,0.1-3.3-0.5-4.5c-0.6-1.2-1.5-2.1-2.6-2.7c-1.1-0.7-2.5-1.1-4-1.4
			c-1.5-0.3-3-0.4-4.5-0.4h-12.9L444.3,67.6z"/>
		<path fill="#FF7422" d="M496.8,89.8c0.7-4.7,2.1-9,4.3-12.8c2.2-3.8,5-7.1,8.4-9.8c3.3-2.7,7.1-4.8,11.4-6.3
			c4.2-1.5,8.6-2.2,13.2-2.2c4.6,0,8.7,0.7,12.6,2.2c3.8,1.5,7,3.6,9.6,6.3c2.6,2.7,4.5,6,5.7,9.8c1.2,3.8,1.4,8.1,0.8,12.8
			c-0.7,4.7-2.1,9-4.4,12.8c-2.3,3.8-5.1,7.1-8.4,9.8c-3.3,2.7-7.1,4.8-11.4,6.3c-4.2,1.5-8.6,2.2-13.2,2.2c-4.6,0-8.8-0.7-12.6-2.2
			c-3.8-1.5-7-3.6-9.6-6.3c-2.6-2.7-4.4-6-5.6-9.8C496.4,98.8,496.1,94.6,496.8,89.8z M515.1,89.8c-0.7,4.5,0.1,8.1,2.3,10.9
			c2.2,2.8,5.6,4.2,10.2,4.2c4.6,0,8.4-1.4,11.4-4.2c3-2.8,4.8-6.4,5.4-10.9c0.7-4.5-0.1-8.1-2.3-10.9c-2.2-2.8-5.6-4.2-10.3-4.2
			c-4.6,0-8.4,1.4-11.4,4.2C517.6,81.7,515.8,85.4,515.1,89.8z"/>
		<path fill="#FF7422" d="M616,74.8h-16.1L597,94.6c-0.2,1.6-0.4,3.1-0.4,4.5c0,1.3,0.2,2.5,0.7,3.5c0.4,1,1.2,1.7,2.3,2.3
			c1.1,0.5,2.6,0.8,4.6,0.8c1,0,2.3-0.1,3.8-0.3c1.6-0.2,2.8-0.7,3.7-1.4l-2.1,15.3c-2.1,0.7-4.3,1.2-6.5,1.5
			c-2.2,0.2-4.4,0.4-6.5,0.4c-3.1,0-5.9-0.3-8.4-1c-2.5-0.7-4.7-1.7-6.4-3.1c-1.8-1.4-3-3.3-3.8-5.6c-0.8-2.3-1-5-0.5-8.3l4-28.2
			h-11.7l2.1-14.7h11.7l2.4-17.6h18.3l-2.4,17.6H618L616,74.8z"/>
	</g>
	<g transform="translate(0,-952.36218)">
		<path fill="#FF7422" d="M80.7,955.6l-49,72.5l29,0.2l-12.6,57.6l51.5-73.6l-28.8-0.1L80.7,955.6z"/>
	</g>
</g>
</svg>
